<?xml version="1.0" encoding="UTF-8" standalone="no"?>
<!-- Created with Inkscape (http://www.inkscape.org/) -->

<svg
   xmlns:dc="http://purl.org/dc/elements/1.1/"
   xmlns:cc="http://creativecommons.org/ns#"
   xmlns:rdf="http://www.w3.org/1999/02/22-rdf-syntax-ns#"
   xmlns:svg="http://www.w3.org/2000/svg"
   xmlns="http://www.w3.org/2000/svg"
   xmlns:xlink="http://www.w3.org/1999/xlink"
   xmlns:sodipodi="http://sodipodi.sourceforge.net/DTD/sodipodi-0.dtd"
   xmlns:inkscape="http://www.inkscape.org/namespaces/inkscape"
   width="744.09448819"
   height="1052.3622047"
   id="svg2"
   version="1.1"
   inkscape:version="0.48.3.1 r9886"
   sodipodi:docname="gauge.svg">
  <defs
     id="defs4" />
  <sodipodi:namedview
     id="base"
     pagecolor="#ffffff"
     bordercolor="#666666"
     borderopacity="1.0"
     inkscape:pageopacity="0.0"
     inkscape:pageshadow="2"
     inkscape:zoom="0.98994949"
     inkscape:cx="409.40596"
     inkscape:cy="-533.82504"
     inkscape:document-units="px"
     inkscape:current-layer="layer1"
     showgrid="false"
     inkscape:window-width="856"
     inkscape:window-height="794"
     inkscape:window-x="297"
     inkscape:window-y="277"
     inkscape:window-maximized="0" />
  <metadata
     id="metadata7">
    <rdf:RDF>
      <cc:Work
         rdf:about="">
        <dc:format>image/svg+xml</dc:format>
        <dc:type
           rdf:resource="http://purl.org/dc/dcmitype/StillImage" />
        <dc:title />
      </cc:Work>
    </rdf:RDF>
  </metadata>
  <g
     inkscape:label="Layer 1"
     inkscape:groupmode="layer"
     id="layer1">
    <image
       y="328.43362"
       x="153.35715"
       id="image3082"
       xlink:href="file:///home/iwasz/Documents/workspace-CDT/moto-overlay/build/image/dashboard.png"
       height="365"
       width="429" />
    <path
       style="fill:#000000"
       d="m 328.85715,1067.4586 c -1.65,-0.729 -35.4,-22.8937 -75,-49.2549 -39.6,-26.36129 -77.07836,-51.23149 -83.28524,-55.26714 -6.20688,-4.03565 -11.74295,-8.19279 -12.30238,-9.23809 -1.97544,-3.69115 -3.98645,-18.52162 -4.5882,-33.83628 -2.4717,-62.90576 23.50022,-122.65879 71.17582,-163.75266 83.75306,-72.19075 207.35009,-67.551 285.49195,10.71717 76.36032,76.48374 80.27353,197.87997 9.03848,280.3923 -10.74472,12.4457 -15.96045,17.2537 -21.39342,19.7207 -3.93988,1.789 -7.99679,1.8777 -85.13701,1.8614 -65.05063,-0.014 -81.59072,-0.2782 -84,-1.3425 z m 169.05153,-2.9682 c 7.86925,-3.6644 27.17718,-25.4632 38.10151,-43.0169 33.51251,-53.84946 41.1523,-115.81426 21.49674,-174.35567 C 527.76056,758.5223 440.2119,700.55385 346.98768,707.72706 c -102.00229,7.84865 -181.07547,85.4393 -190.71073,187.13513 -1.72459,18.20227 0.49332,51.3179 3.85587,57.57191 0.57017,1.06045 5.24139,4.61539 10.3805,7.89988 5.1391,3.28448 42.41883,27.99024 82.84383,54.90172 40.425,26.9114 75.075,49.5168 77,50.2343 2.76683,1.0312 20.15346,1.3115 83,1.3385 l 79.5,0.034 5.05153,-2.3522 z m -165.55153,-1.9909 c -1.925,-0.7013 -36.35,-23.0884 -76.5,-49.7493 -40.15,-26.66089 -77.36253,-51.29751 -82.69452,-54.74806 -7.64982,-4.9505 -9.90265,-6.94507 -10.68132,-9.45683 -3.43562,-11.0823 -4.29862,-45.99238 -1.58948,-64.29787 4.58311,-30.96786 15.1663,-58.52593 32.21466,-83.88525 30.14267,-44.83704 75.60883,-75.10664 129.2929,-86.07816 15.32197,-3.13138 46.6169,-4.39057 62.53535,-2.51617 68.03675,8.0113 126.0832,48.04751 157.65145,108.73649 14.96919,28.7778 21.91225,57.70396 21.92836,91.35784 0.0153,32.04627 -6.94267,61.62107 -21.17414,90.00001 -12.80909,25.5426 -39.35021,58.0638 -49.74214,60.9499 -5.87584,1.6318 -156.70599,1.3394 -161.24112,-0.3126 z m 162.82492,-5.0468 c 3.87523,-2.0039 17.52895,-16.527 25.31339,-26.9251 18.82459,-25.1451 31.84882,-55.01496 37.35286,-85.66541 2.59253,-14.43706 3.12117,-43.64286 1.05888,-58.5 C 549.58623,819.212 508.5227,763.18065 447.14382,733.8606 367.69413,695.90831 270.37724,715.94579 212.18787,782.23786 c -31.7915,36.21838 -48.87293,81.85954 -48.8124,130.42555 0.0175,14.06961 2.1663,34.91224 3.73575,36.23615 0.41026,0.34607 17.39593,11.60888 37.74593,25.02845 20.35,13.41957 57.475,38.01629 82.5,54.65939 l 45.5,30.2602 79.79966,0.01 c 66.70947,0.01 80.24676,-0.2239 82.52526,-1.4022 z m 19.17508,-104.11903 c 0,-0.29068 1.388,-3.27814 3.08445,-6.63878 2.26554,-4.488 2.76252,-6.30924 1.87189,-6.85968 -2.27417,-1.40552 0.15255,-2.97302 4.60268,-2.97302 2.44254,0 4.44098,0.2841 4.44098,0.63133 0,0.34723 -1.88667,4.17223 -4.1926,8.5 -3.70883,6.96073 -4.51654,7.86867 -7,7.86867 -1.54407,0 -2.8074,-0.23783 -2.8074,-0.52852 z m 10.2131,-1.11315 c 1.13899,-1.13899 3.88384,-1.75179 8.96428,-2.00132 8.11347,-0.39851 9.82262,-0.80317 9.82262,-2.32563 0,-0.60273 -2.70147,-1.03138 -6.5,-1.03138 -3.575,0 -6.5,-0.3949 -6.5,-0.87756 0,-1.9963 2.96809,-3.03837 9.46199,-3.322 4.38665,-0.1916 7.02825,-0.75329 7.29165,-1.55044 0.30795,-0.932 -1.67451,-1.25 -7.79275,-1.25 -7.18064,0 -8.05026,-0.18739 -6.96089,-1.5 0.96695,-1.1651 3.67346,-1.5 12.12244,-1.5 6.0689,0 10.87756,0.4127 10.87756,0.93355 0,0.51346 -1.43046,3.32596 -3.17879,6.25 -1.74834,2.92405 -3.78371,6.32895 -4.52305,7.56645 -1.2716,2.12838 -1.97622,2.25 -13.0355,2.25 -10.84061,0 -11.57179,-0.11944 -10.04956,-1.64167 z m -176.2131,-4.2406 c -9.43992,-3.09657 -20.79632,-12.47603 -24.0553,-19.86773 -0.92992,-2.10914 -2.13706,-3.25049 -3.43881,-3.25138 -2.18973,-0.002 -62.09115,6.72153 -67.08087,7.52883 -2.74985,0.4449 -3.02953,0.80711 -2.64521,3.42569 0.53596,3.65171 -3.44023,8.04686 -7.27981,8.04686 -3.23529,0 -7.5,-4.13212 -7.5,-7.26683 l 0,-2.35773 -16.70856,1.94256 c -15.1919,1.76623 -16.87776,2.15767 -18.57258,4.31228 -1.73598,2.20695 -2.54187,2.36972 -11.73242,2.36972 -5.42763,0 -10.10062,-0.37573 -10.38444,-0.83495 -0.28381,-0.45923 1.37713,-4.17173 3.69099,-8.25 l 4.20701,-7.41505 13.5,-0.64603 c 9.25355,-0.44281 21.52107,-2.0905 39,-5.23819 14.025,-2.5257 25.8375,-4.59749 26.25,-4.60398 0.4125,-0.006 0.7507,-1.9243 0.75155,-4.2618 0.006,-15.79477 19.87982,-21.83362 28.00385,-8.50914 1.09292,1.79253 1.98881,4.04664 1.99086,5.00914 0.005,2.20482 2.53889,2.19428 14.3897,-0.0598 l 8.88595,-1.69017 1.38075,-5.39537 c 7.44315,-29.08456 42.40514,-39.75875 64.18355,-19.59578 3.17188,2.9366 6.59293,6.87283 7.60233,8.74717 l 1.83528,3.4079 7.39926,-1.28669 c 5.95998,-1.03642 10.31849,-1.04496 10.32829,-0.0202 7.5e-4,0.0787 0.67513,3.96801 1.49863,8.64301 0.8235,4.675 1.49788,9.29715 1.49863,10.27144 0.002,2.3318 -3.02647,3.47634 -11.24863,4.25143 -6.06419,0.57167 -6.75008,0.85683 -6.75079,2.80672 -10e-4,3.97645 -5.86289,14.62933 -10.72414,19.49057 -2.64033,2.64033 -7.47985,6.11144 -10.7545,7.71358 -5.12537,2.50761 -7.28055,2.94714 -15.48724,3.15852 -5.24333,0.13498 -10.65833,-0.12356 -12.03333,-0.5746 z m 26,-6.55748 c 7.30797,-3.69539 14.34268,-11.24581 17.11712,-18.37199 7.67456,-19.71213 -3.64186,-41.52125 -24.28945,-46.81092 -15.40987,-3.94783 -32.45292,4.0147 -39.5572,18.48115 -2.43698,4.96242 -2.77047,6.78506 -2.77047,15.14151 0,8.14544 0.36991,10.28422 2.59433,15 2.78853,5.91172 9.39301,13.1583 14.34613,15.74088 9.93919,5.18235 23.26802,5.51777 32.55954,0.81937 z m -24,-0.44662 c -13.51848,-4.39069 -21.96109,-15.18844 -22.76353,-29.11363 -0.7921,-13.74586 5.2451,-24.15796 17.50775,-30.19484 13.16163,-6.47945 27.81855,-3.64653 37.63766,7.27469 14.15212,15.74056 9.08247,40.66472 -10.18907,50.09298 -5.0133,2.45267 -17.30675,3.52775 -22.19281,1.9408 z m 21.24244,-3.98895 c 10.30499,-4.98856 16.73121,-15.04031 16.74779,-26.19654 0.014,-9.40015 -2.34844,-15.41679 -8.44853,-21.51688 -9.24343,-9.24342 -22.18777,-11.32155 -34.07344,-5.47025 -24.39521,12.00972 -20.94105,46.46787 5.53174,55.18374 4.3331,1.42662 15.42846,0.33034 20.24244,-2.00007 z m -125.25301,1.38805 c 1.75893,-2.11937 0.49949,-4.51273 -2.37471,-4.51273 -2.78914,0 -3.7611,1.68992 -2.44441,4.25 1.10152,2.14172 3.16628,2.25428 4.81912,0.26273 z m -52.76295,-0.55259 c -1.25044,-0.5022 -2.64833,-1.92628 -3.10642,-3.16462 -0.81092,-2.19212 -0.87693,-2.16635 -2.50216,0.97648 l -1.66926,3.228 4.77568,-0.0634 c 3.909,-0.0519 4.36309,-0.22909 2.50216,-0.97647 z m 61.99324,-9.9984 c 29.30416,-3.32104 56.04187,-6.30636 59.41714,-6.63404 l 6.13687,-0.59578 -0.51321,-4.11596 c -0.28226,-2.26378 -0.80985,-4.44696 -1.17242,-4.85152 -0.5998,-0.66926 -14.06599,1.5495 -96.0881,15.83194 -14.575,2.53794 -27.175,5.00331 -28,5.47861 -3.03878,1.75072 7.69724,0.83913 60.21972,-5.11325 z m 20.30166,-14.98537 c 1.40396,-1.55135 1.55682,-2.29817 0.65499,-3.2 -1.61568,-1.61568 -1.48255,-4.77637 0.20119,-4.77637 0.75765,0 1.94717,0.68635 2.64338,1.52523 1.1309,1.36265 1.45975,1.34973 3.0852,-0.12128 1.01749,-0.92082 2.54465,-1.36819 3.46495,-1.01504 1.51625,0.58184 1.51918,0.82437 0.0372,3.08609 -2.25099,3.43545 -2.09035,3.68562 2.14167,3.33537 5.26837,-0.43604 5.62283,-3.63754 0.92308,-8.33729 -2.81307,-2.81311 -4.23756,-3.47308 -7.49631,-3.47308 -5.16187,0 -9.84725,3.72681 -10.7526,8.55275 -1.16312,6.19995 1.44293,8.4616 5.09725,4.42362 z m 134.0777,-2.47154 c 0.79582,-0.23622 0.78335,-2.21334 -0.0452,-7.16553 l -1.14431,-6.8393 -5.38911,0.23433 c -2.964,0.12888 -5.6925,0.57888 -6.06333,1 -0.37082,0.42112 -0.2001,3.77157 0.37939,7.44545 l 1.0536,6.67979 5.05495,-0.51425 c 2.78022,-0.28284 5.54954,-0.66106 6.15403,-0.84049 z m 87.90092,35.97009 c -0.55,-0.20195 -2.9125,-0.85877 -5.25,-1.4596 -4.1036,-1.05478 -5.52268,-3.11073 -3.1565,-4.5731 1.25377,-0.77488 12.72374,1.45305 13.43902,2.61039 1.49474,2.41855 -1.75239,4.62673 -5.03252,3.42231 z m 1,-6.15608 c -6.91152,-1.5522 -8.5,-2.49426 -8.5,-5.041 0,-2.56209 0.0129,-2.56585 6.6791,-1.94335 3.6735,0.34304 7.01389,0.97061 7.42307,1.39461 0.40919,0.42399 0.50113,2.0084 0.20433,3.5209 -0.53728,2.73792 -1.42263,3.05337 -5.8065,2.06884 z m 0,-7.81589 c -0.55,-0.18654 -2.70001,-0.62375 -4.77779,-0.97158 -2.30199,-0.38537 -3.52091,-1.04806 -3.12023,-1.69638 0.63615,-1.02932 10.67152,-0.43474 13.9598,0.82709 3.53401,1.35613 -2.28271,3.12257 -6.06178,1.84087 z m -2.25,-4.69802 c -4.53507,-0.82709 -5.25,-1.27086 -5.25,-3.25876 0,-2.52484 1.66677,-4.16131 4,-3.92731 0.825,0.0827 3.6375,0.20235 6.25,0.26579 l 4.75,0.11535 0,4 c 0,4.51411 -0.14678,4.55633 -9.75,2.80493 z m -63.28364,-2.62522 c -5.48955,-2.43299 -9.95688,-8.7983 -9.96262,-14.19531 -0.005,-4.66853 2.91579,-9.94513 7.09787,-12.8229 2.85705,-1.96599 4.33675,-2.27279 9.28917,-1.92601 5.38914,0.37737 6.21943,0.76482 9.75,4.54978 3.49006,3.74152 3.85922,4.65296 3.85922,9.52812 0,6.46958 -2.78198,11.30342 -8.01993,13.93506 -3.49767,1.75728 -9.15967,2.19619 -12.01371,0.93126 z m 13.28364,-7.13374 c 4.14577,-4.63952 3.85649,-10.13948 -0.77701,-14.77298 -3.23472,-3.23472 -3.90106,-3.48485 -8.04058,-3.01826 -5.26159,0.59306 -7.919,2.6596 -9.47232,7.36619 -3.67488,11.135 10.45749,19.1903 18.28991,10.42505 z m -13.90267,-2.58322 c -0.32444,-0.84548 0.15104,-2.35596 1.05662,-3.35661 1.47101,-1.62545 1.48393,-1.9543 0.12128,-3.0852 -0.83888,-0.69621 -1.52523,-1.88573 -1.52523,-2.64338 0,-1.63637 3.14287,-1.83469 4.6821,-0.29546 0.77614,0.77614 1.67389,0.71253 3.17504,-0.22496 1.65814,-1.03552 2.34891,-1.05109 3.32504,-0.075 0.97614,0.97614 0.89218,1.57203 -0.40414,2.86835 -1.49543,1.49543 -1.50046,1.84348 -0.0585,4.0442 2.20794,3.36974 0.21414,5.46022 -2.69592,2.82665 -1.88674,-1.70747 -2.14734,-1.7194 -3.85237,-0.17637 -2.27033,2.05463 -3.07121,2.07929 -3.82393,0.11774 z m 64.90267,3.80001 c -3.85049,-0.26937 -5.25,-0.76935 -5.25,-1.87557 0,-1.26921 1.1492,-1.3988 7.25,-0.81755 3.9875,0.37991 7.40756,0.82721 7.60014,0.99402 0.85364,0.7394 -1.12979,2.41866 -2.65916,2.25136 -0.93004,-0.10174 -4.05348,-0.35026 -6.94098,-0.55226 z m 1,-4.0133 c -6.13313,-0.33845 -6.25,-0.39851 -6.25,-3.21185 0,-2.83259 0.0791,-2.87097 6.60237,-3.20228 3.63131,-0.18443 7.04234,-0.0615 7.58008,0.27318 1.23863,0.7709 0.65674,6.19509 -0.68245,6.36155 -0.55,0.0684 -3.8125,-0.0309 -7.25,-0.2206 z M 182.9432,906.61219 c 3.86934,-7.17921 4.00128,-7.75 1.7915,-7.75 -1.32879,0 -1.39712,-0.27149 -0.37755,-1.5 1.39412,-1.67981 10,-2.12434 10,-0.51654 0,0.5409 -1.67368,4.3659 -3.71929,8.5 -3.61978,7.31545 -3.81752,7.51654 -7.39123,7.51654 l -3.67194,0 3.36851,-6.25 z m 332.43207,2.5 c 0.01,-0.4125 1.35996,-3.1844 3,-6.15977 3.44679,-6.25321 3.59917,-7.09023 1.29075,-7.09023 -1.47465,0 -1.44265,-0.18794 0.25,-1.4682 2.22677,-1.68424 9.44113,-2.05462 9.44113,-0.4847 0,0.57591 -1.84067,4.40091 -4.09039,8.5 -3.63637,6.62567 -4.41333,7.4529 -7,7.4529 -1.60028,0 -2.90146,-0.3375 -2.89149,-0.75 z m 9.98188,0.40364 c 0,-0.1905 0.68221,-1.7139 1.51603,-3.38532 1.66204,-3.33164 3.74462,-4.38282 13.48397,-6.80605 9.62154,-2.39392 9.66122,-3.46227 0.12857,-3.46227 -7.35238,0 -8.10476,-0.16667 -6.77143,-1.5 1.13475,-1.13475 3.95238,-1.5 11.57143,-1.5 9.12275,0 10.07143,0.17379 10.07143,1.84501 0,3.06612 -3.43142,5.21456 -11.66856,7.30578 -4.30729,1.09353 -8.49037,2.63195 -9.29573,3.41872 -1.27257,1.2432 -0.30734,1.43049 7.37245,1.43049 7.74149,0 8.68244,0.18591 7.59184,1.5 -0.97309,1.1725 -3.72901,1.5 -12.62244,1.5 -6.25766,0 -11.37756,-0.15586 -11.37756,-0.34636 z m -309,-3.19745 c 0,-2.51818 0.073,-2.54085 7.25,-2.25 6.65277,0.26961 7.27632,0.47916 7.56955,2.54381 0.30724,2.16331 0.0279,2.25 -7.25,2.25 -7.44228,0 -7.56955,-0.0428 -7.56955,-2.54381 z m 276,-0.79425 c 0,-2.11628 0.58292,-2.68067 3.294,-3.18927 1.81171,-0.33988 5.07421,-0.47277 7.25,-0.29532 3.22179,0.26277 4.01531,0.74024 4.27555,2.57265 0.29683,2.09002 -0.0587,2.25097 -5,2.26365 -2.92575,0.008 -6.33205,0.285 -7.56955,0.61664 -1.90631,0.51087 -2.25,0.2102 -2.25,-1.96835 z m -0.33333,-5.32861 c -0.36667,-0.36666 -0.66667,-1.48309 -0.66667,-2.48094 0,-2.08804 2.54719,-2.92941 9.62709,-3.17995 4.80783,-0.17014 4.87709,-0.12904 5.18627,3.07756 l 0.31336,3.25 -6.89669,0 c -3.79319,0 -7.1967,-0.3 -7.56336,-0.66667 z m -263.66667,-4.892 c -0.825,-0.17282 -3.6375,-0.5954 -6.25,-0.93905 -5.1555,-0.67817 -6.53296,-2.50228 -1.88957,-2.50228 5.59412,0 12.20694,1.29788 11.86343,2.32841 -0.40196,1.20589 -1.58799,1.56035 -3.72386,1.11292 z m 262.58609,-2.30203 c -0.78495,-1.27008 5.53097,-3.12609 10.66391,-3.13372 3.39252,-0.005 4.92351,1.17974 3,2.32162 -1.86928,1.10968 -13.06862,1.7753 -13.66391,0.8121 z M 226.10715,882.02306 c -4.27785,-0.92607 -6.75,-1.9556 -6.75,-2.81105 0,-1.66758 -0.33391,-1.67714 8.05259,0.23033 6.26479,1.4249 8.30338,2.63274 6.19741,3.67189 -0.4125,0.20354 -3.7875,-0.28749 -7.5,-1.09117 z m 262.91667,-0.82754 c -1.43418,-1.43417 -0.45252,-2.06089 5.08333,-3.24537 3.1625,-0.67667 6.5375,-1.4536 7.5,-1.72652 1.12682,-0.31951 1.75,0.0552 1.75,1.05212 0,0.87655 -1.19315,1.80941 -2.75,2.15006 -1.5125,0.33095 -4.05465,1.01453 -5.64922,1.51906 -3.4409,1.08871 -5.02898,1.15579 -5.93411,0.25065 z M 229.41898,870.43398 c -6.59945,-2.25591 -7.62428,-3.13344 -6.22916,-5.33377 0.58593,-0.9241 1.5856,-1.00412 3.73375,-0.29889 1.61347,0.52969 4.84608,1.45243 7.18358,2.05052 4.54845,1.1638 4.95677,1.7362 3,4.2055 -1.13002,1.42601 -1.86796,1.36618 -7.68817,-0.62336 z m 256.63594,-0.20736 c -0.38378,-0.38377 -0.69777,-1.45152 -0.69777,-2.37277 0,-1.92635 10.78909,-5.67031 13.42522,-4.65873 3.28534,1.2607 1.56024,3.52938 -3.88814,5.11327 -3.0046,0.87346 -6.0656,1.81938 -6.80223,2.10205 -0.73663,0.28267 -1.65331,0.19995 -2.03708,-0.18382 z m -305.60446,-6.61443 c 2.30227,-4.45146 4.22243,-5.6459 12.74857,-7.93027 l 8.65812,-2.31973 -7.25,-0.29381 c -3.9875,-0.16159 -7.25,-0.63409 -7.25,-1.05 0,-2.37158 3.03283,-3.15619 12.2,-3.15619 8.85892,0 9.8,0.17717 9.8,1.84501 0,2.99967 -3.15184,5.00662 -12.04135,7.66737 -11.7797,3.52582 -12.10895,4.48762 -1.53621,4.48762 7.72879,0 8.66813,0.18594 7.57756,1.5 -0.9735,1.17299 -3.73292,1.5 -12.65763,1.5 l -11.41274,0 1.16368,-2.25 z m 326.90669,0.7558 c 0,-0.84767 4.96483,-9.77618 6.09213,-10.9558 1.39058,-1.45511 1.08376,-2.55 -0.71457,-2.55 -1.3288,0 -1.39713,-0.27149 -0.37756,-1.5 1.25952,-1.51763 9.04296,-2.16973 8.9519,-0.75 -0.0265,0.4125 -1.71687,4.125 -3.75647,8.25 -3.36865,6.81295 -4.0055,7.52871 -6.9519,7.81336 -1.78394,0.17235 -3.24353,0.034 -3.24353,-0.30756 z m 23,-0.1094 c 0,-0.40167 1.56649,-3.58018 3.48108,-7.06335 2.57969,-4.69318 3.09757,-6.33305 2,-6.33305 -1.79095,0 -1.90864,-1.17244 -0.28108,-2.8 1.37311,-1.37311 9.8,-1.65071 9.8,-0.32284 0,0.48244 -1.9554,4.41994 -4.34534,8.75 -3.85802,6.98991 -4.69914,7.90798 -7.5,8.1862 -1.73506,0.17235 -3.15466,-0.0153 -3.15466,-0.41696 z m -296.5,-6.96166 c -2.75,-1.32413 -5.41717,-2.5527 -5.92705,-2.73014 -0.50988,-0.17745 -0.61398,-0.82919 -0.23134,-1.44831 0.48099,-0.77826 2.84236,-0.17753 7.65112,1.94645 3.82548,1.68968 6.71553,3.4603 6.42233,3.9347 -0.79999,1.29441 -2.40977,0.94811 -7.91506,-1.7027 z m 247.5,0.24913 c 0,-2.02064 11.75021,-7.33366 13.14167,-5.9422 0.82646,0.82646 -0.65358,1.92395 -5.64923,4.18909 -7.81502,3.5435 -7.49244,3.46802 -7.49244,1.75311 z m -241.5,-11.76648 c -2.75,-1.57733 -5.45,-3.04777 -6,-3.26764 -0.66421,-0.26552 -0.66115,-0.76378 0.009,-1.48387 1.21775,-1.30826 13.85903,5.42942 12.94909,6.90174 -0.78617,1.27204 -1.2317,1.13436 -6.95821,-2.15023 z m 235.98736,1.06216 c -0.3782,-0.61194 -0.53007,-1.22122 -0.3375,-1.35397 5.01219,-3.45504 12.94508,-7.28098 13.43916,-6.48155 0.82601,1.33651 0.0541,1.99873 -6.75152,5.792 -3.80922,2.12315 -5.88757,2.79198 -6.35014,2.04352 z m -176.48736,-7.47955 c 0.68469,-0.825 1.86479,-1.5 2.62244,-1.5 1.69656,0 1.79838,-2.17918 0.17756,-3.8 -0.93333,-0.93333 -0.75556,-1.2 0.8,-1.2 1.1,0 2.54,0.54 3.2,1.2 0.93333,0.93333 1.46667,0.93333 2.4,0 0.66,-0.66 2.1225,-1.18382 3.25,-1.16404 1.84496,0.0324 1.76411,0.26981 -0.80839,2.374 -1.81197,1.4821 -2.45262,2.58881 -1.75,3.02305 0.60961,0.37676 1.10839,1.10847 1.10839,1.62601 0,1.25873 -3.71709,1.20776 -4.50167,-0.0617 -0.41425,-0.67028 -1.24086,-0.67028 -2.49328,0 -1.03046,0.55148 -2.63325,1.0027 -3.56175,1.0027 -1.38723,0 -1.46626,-0.26741 -0.4433,-1.5 z m 13,0.95034 c 0,-0.30231 0.69339,-1.89053 1.54087,-3.52937 0.84747,-1.63884 1.23982,-3.4668 0.87188,-4.06214 -0.84189,-1.36221 1.38695,-2.82344 4.33725,-2.84352 2.79413,-0.019 2.79431,-0.023 -0.26685,6.01793 -1.74315,3.43995 -3.12647,4.96676 -4.5,4.96676 -1.09073,0 -1.98315,-0.24735 -1.98315,-0.54966 z m 7.661,-4.65262 2.839,-5.29772 6.25,-0.29772 c 7.1544,-0.3408 7.44609,0.12357 3.956,6.29772 -2.25633,3.99158 -2.27544,4.00063 -9.07255,4.29772 l -6.81146,0.29772 2.83901,-5.29772 z m 7.26027,2.20228 c 0.41674,0 1.27028,-1.125 1.89678,-2.5 0.99991,-2.19458 0.90428,-2.5 -0.78278,-2.5 -1.05703,0 -2.62238,1.00013 -3.47857,2.22251 -1.99314,2.8456 -1.98343,4.15522 0.0251,3.38448 0.86997,-0.33385 1.92274,-0.60699 2.33947,-0.60699 z m 5.07873,2.24147 c 0,-0.46745 1.34009,-2.96301 2.97798,-5.54569 l 2.97797,-4.69578 6.02203,0 c 6.85101,0 7.10654,0.4559 3.64328,6.5 -2.27659,3.97312 -2.33678,4.00199 -8.95663,4.29569 -3.66554,0.16263 -6.66463,-0.0868 -6.66463,-0.55422 z m 11.65591,-4.74927 c 1.048,-2.25952 0.94628,-2.4922 -1.08948,-2.4922 -1.42467,0 -2.66175,0.91379 -3.38448,2.5 -1.0298,2.26017 -0.92528,2.49925 1.08949,2.4922 1.39475,-0.005 2.66104,-0.94026 3.38447,-2.5 z m 3.34409,4.97456 c 0,-0.29329 1.13258,-2.76829 2.51685,-5.5 l 2.51684,-4.96676 6.48316,0 c 3.56573,0 6.48315,0.23996 6.48315,0.53324 0,0.29329 -1.13258,2.76829 -2.51685,5.5 l -2.51684,4.96676 -6.48316,0 c -3.56573,0 -6.48315,-0.23996 -6.48315,-0.53324 z m 10.96482,-4.40102 c 1.43555,-2.68235 1.31929,-3.06574 -0.92964,-3.06574 -1.67655,0 -4.03518,2.5919 -4.03518,4.43426 0,1.45944 4.04859,0.34347 4.96482,-1.36852 z m 4.03518,4.0153 c 0,-0.50543 0.7875,-2.30258 1.75,-3.99368 1.63791,-2.87777 2.12209,-3.07512 7.55902,-3.08104 3.61947,-0.004 5.57606,0.3706 5.19098,0.99368 -0.33992,0.55 -2.15492,1 -4.03334,1 -2.78336,0 -3.70235,0.55509 -4.96666,3 -1.43996,2.78458 -5.5,4.32078 -5.5,2.08104 z m 21.49116,-0.0953 c -0.70796,-1.1455 2.19659,-6.95459 3.53452,-7.06902 1.03818,-0.0888 10.79834,0.0694 13.72432,0.22249 0.9625,0.0504 5.125,-0.17699 9.25,-0.50521 9.28249,-0.7386 10.81438,-0.0143 9.03826,4.27369 -0.92403,2.2308 -1.94362,3.09236 -3.65958,3.09236 -2.42387,0 -3.18642,-1.38276 -1.37868,-2.5 1.69805,-1.04945 1.10539,-2.5 -1.02144,-2.5 -1.18578,0 -2.49233,1.03349 -3.16051,2.5 -0.74953,1.64503 -1.95119,2.5 -3.51375,2.5 -2.14394,0 -2.26055,-0.21861 -1.2002,-2.25 0.96803,-1.85453 0.70979,-1.75676 -1.46924,0.55629 -2.95467,3.13639 -5.31647,2.83582 -3.55654,-0.45262 0.59604,-1.11373 0.82226,-2.28642 0.5027,-2.60598 -0.31956,-0.31956 -0.58102,-0.056 -0.58102,0.58564 0,1.72591 -3.9187,5.33495 -5.04014,4.64186 -0.53196,-0.32877 -0.73786,-1.80768 -0.45755,-3.28648 l 0.50965,-2.68871 -1.08931,2.75 c -0.96364,2.43272 -1.97985,3.00904 -4.67265,2.65 -0.78738,-0.10498 -0.78064,-0.20059 0.23956,-3.4 0.38279,-1.20046 0.0247,-0.94803 -0.89572,0.63143 -1.68555,2.8924 -4.20732,4.30299 -5.10268,2.85426 z m -12.49116,-0.34416 c 0,-1.09878 11.41762,-7.70502 12.82368,-7.41979 2.06614,0.41914 -8.3982,7.77821 -11.06033,7.77821 -0.96984,0 -1.76335,-0.16129 -1.76335,-0.35842 z m -126.25,-4.3829 c -4.70256,-3.66085 -5.72708,-5.53678 -3.70602,-6.78586 1.06081,-0.65562 3.81632,0.82673 9.75514,5.24787 2.64876,1.97186 3.06816,2.7343 2.12755,3.86766 -1.73497,2.09051 -2.93956,1.7473 -8.17667,-2.32967 z m 223.85699,1.15953 c -0.33385,-0.86998 -0.60699,-1.69518 -0.60699,-1.83378 0,-1.14042 11.3015,-7.68271 12.48621,-7.2281 2.67329,1.02584 1.57999,3.05297 -3.71798,6.89367 -5.69099,4.12561 -7.25107,4.54008 -8.16124,2.16821 z m -64.60699,-5.91821 c 0,-0.83333 0.88889,-1.5 2,-1.5 1.11111,0 2,0.66667 2,1.5 0,0.83333 -0.88889,1.5 -2,1.5 -1.11111,0 -2,-0.66667 -2,-1.5 z m -151.00492,-6.50657 c -3.02229,-2.65191 -5.16903,-5.14887 -4.77052,-5.54878 0.78168,-0.78442 11.77544,7.26144 11.77544,8.61794 0,2.20384 -1.98831,1.33267 -7.00492,-3.06916 z m 208.17159,2.10638 c 0.62583,-1.69009 10.29259,-9.09993 11.815,-9.05652 1.83666,0.0524 -8.9042,9.92987 -10.815,9.94568 -0.73334,0.006 -1.18334,-0.39405 -1,-0.88916 z m -262.5283,-6.59981 c 0.44376,-1.15642 2.36716,-1.5 8.39719,-1.5 6.11351,0 8.20506,-0.38216 9.57759,-1.75 1.67301,-1.66729 1.41644,-1.76389 -5.42857,-2.04381 -3.95152,-0.16159 -7.18458,-0.66899 -7.18458,-1.12755 0,-1.95188 3.01553,-2.99664 9.46199,-3.2782 4.66626,-0.20381 7.02186,-0.73368 7.32398,-1.64745 0.3468,-1.0489 -0.96344,-1.30009 -5.9203,-1.13498 -9.82121,0.32714 -10.32536,0.24081 -8.86567,-1.51801 1.65489,-1.99402 23.00768,-2.22625 22.98678,-0.25 -0.007,0.6875 -1.82254,4.5125 -4.03394,8.5 l -4.02072,7.25 -11.43467,0 c -9.75332,0 -11.35004,-0.22056 -10.85908,-1.5 z m 286.9512,-1.68211 c 0.94113,-1.82484 2.77413,-5.00539 4.07333,-7.06789 1.96115,-3.11334 2.09125,-3.75 0.76631,-3.75 -0.87773,0 -1.4107,-0.5625 -1.18437,-1.25 0.45161,-1.37183 9.75516,-2.36914 9.75516,-1.04571 0,0.44762 -1.9125,4.18478 -4.25,8.30479 -3.80963,6.71473 -4.59305,7.52386 -7.56079,7.80881 l -3.31079,0.31789 1.71115,-3.31789 z m 10.41043,2.15715 c 0,-1.8957 7.05755,-15.0607 8.28517,-15.45497 2.69968,-0.86705 19.76387,-1.24973 20.25551,-0.45424 0.59932,0.96971 -4.96006,12.52077 -7.30796,15.18417 -1.27268,1.4437 -3.26587,1.75 -11.38771,1.75 -6.05653,0 -9.84501,-0.39442 -9.84501,-1.02496 z m 18.75449,-7.22504 c 1.23809,-2.3375 2.24982,-4.5875 2.24829,-5 -0.002,-0.4125 -1.97892,-0.75 -4.3942,-0.75 -4.21362,0 -4.46526,0.17207 -6.21524,4.25 -1.0031,2.3375 -1.98946,4.5875 -2.19191,5 -0.20245,0.4125 1.58268,0.75 3.96695,0.75 4.08029,0 4.46735,-0.24977 6.58611,-4.25 z m -253.04208,1.46565 c -4.56182,-4.63146 -5.56349,-6.21565 -3.9301,-6.21565 1.06696,0 10.21769,9.09118 10.21769,10.1512 0,1.7744 -1.73016,0.69146 -6.28759,-3.93555 z m 191.28759,2.99676 c 0,-1.41193 9.93364,-10.6121 10.66667,-9.87908 0.39201,0.39202 -1.4932,2.95239 -4.18937,5.68971 -4.68125,4.75272 -6.4773,5.91436 -6.4773,4.18937 z m -181.44408,-8.96244 c -1.61925,-2.06248 -3.53175,-4.10983 -4.25,-4.54966 -1.70421,-1.04358 -1.66403,-3.15822 0.0876,-4.61196 1.11801,-0.92787 2.32845,-0.0622 6.12196,4.37813 3.93243,4.60296 4.51894,5.78709 3.48401,7.0341 -1.75598,2.11582 -2.14028,1.95694 -5.4436,-2.25061 z m 172.97201,1.39411 c -1.76807,-1.29284 -1.63657,-1.65537 2.54057,-7.00375 2.42284,-3.10218 4.69348,-5.64033 5.04588,-5.64033 0.3524,0 1.20048,0.67446 1.88462,1.4988 1.19038,1.43432 -0.0186,3.47227 -6.97357,11.75495 -0.34811,0.41456 -1.47198,0.14021 -2.4975,-0.60967 z M 281.24615,798.34944 c -1.16668,-2.48201 -2.51899,-4.75857 -3.00512,-5.05902 -1.31444,-0.81237 -1.06903,-2.43036 0.36612,-2.41382 0.6875,0.008 2.59746,2.37042 4.24434,5.25 3.96314,6.92951 3.90285,6.73559 2.09412,6.73559 -0.8911,0 -2.50175,-1.96474 -3.69946,-4.51275 z m 153.71644,3.68336 c -0.87138,-1.40992 7.53113,-13.43404 8.62403,-12.34114 0.63558,0.63558 -0.46932,3.10603 -3.16365,7.07361 -4.30492,6.33927 -4.61383,6.63727 -5.46038,5.26753 z M 291.0361,790.62471 c -3.20427,-5.70483 -3.87553,-8.62008 -1.67115,-7.2577 1.20369,0.74392 6.9922,10.9819 6.9922,12.36691 0,2.67367 -2.06125,0.69448 -5.32105,-5.10921 z m 132.4949,4.48748 c 3.35117,-7.3811 7.14832,-13.32783 7.97947,-12.49668 1.38166,1.38166 -4.66523,13.24668 -6.75105,13.24668 -0.86291,0 -1.4157,-0.3375 -1.22842,-0.75 z m -121.20388,-8 c -2.67745,-5.98879 -2.99042,-9.56307 -0.87596,-10.0041 1.11223,-0.23198 2.39678,1.45633 4.25,5.58586 1.4608,3.25508 2.65599,6.37642 2.65599,6.9363 0,0.84892 -2.19046,2.23194 -3.53499,2.23194 -0.20428,0 -1.32705,-2.1375 -2.49504,-4.75 z m 110.29849,2.5 c -0.67071,-0.85861 -0.0818,-3.20694 1.88087,-7.5 2.94543,-6.44274 3.37267,-6.83856 5.75407,-5.33087 1.16362,0.73671 0.92442,2.01549 -1.40002,7.48469 -2.75805,6.48945 -4.30543,7.81626 -6.23492,5.34618 z m -98.22828,-9.35533 c -2.29342,-7.42523 -2.42414,-8.39467 -1.13198,-8.39467 0.91096,0 5.0918,11.24419 5.0918,13.69417 0,3.46811 -2.13383,0.61237 -3.95982,-5.29951 z m 86.95982,4.88284 c 0,-0.48904 0.94131,-3.67654 2.0918,-7.08334 1.98717,-5.88433 4.00112,-8.22243 3.82803,-4.44417 -0.14761,3.22204 -3.40518,11.60067 -4.66983,12.01105 -0.6875,0.22309 -1.25,0.006 -1.25,-0.48354 z m 57,-2.15507 c 0,-2.06765 3.08958,-3.0496 10.46713,-3.32673 5.18694,-0.19484 8.01344,-0.72211 8.28595,-1.54571 0.3046,-0.92062 -1.43736,-1.25 -6.61073,-1.25 -3.86337,0 -7.24967,-0.36463 -7.5251,-0.81028 -0.27543,-0.44566 0.62352,-2.69566 1.99766,-5 l 2.49845,-4.18972 10.44332,0 c 6.48858,0 10.44332,0.38948 10.44332,1.02852 0,1.62216 -5.73946,12.56808 -7.52769,14.35631 -1.28039,1.28039 -3.77673,1.61517 -12.04374,1.61517 -5.73571,0 -10.42857,-0.3949 -10.42857,-0.87756 z m 22,-11.62244 c 1.07843,-1.29942 0.57423,-1.5 -3.77057,-1.5 -3.53569,0 -5.18528,0.44256 -5.59106,1.5 -0.45723,1.19154 0.31815,1.5 3.77057,1.5 2.64331,0 4.83393,-0.58771 5.59106,-1.5 z m -152.96177,7.75 c -1.87259,-6.65128 -2.36846,-11.25 -1.21304,-11.25 1.12307,0 2.74415,4.78489 3.81139,11.25 0.39653,2.40208 0.23055,3.75 -0.46177,3.75 -0.59444,0 -1.5559,-1.6875 -2.13658,-3.75 z m 62.38743,0.12846 c 1.26806,-7.06172 2.63871,-11.37846 3.61288,-11.37846 2.10378,0 -0.6726,14.05069 -2.92393,14.79742 -1.09637,0.36364 -1.2401,-0.34963 -0.68895,-3.41896 z m -146.42566,1.12154 c 1.08814,-1.31112 0.28066,-1.5 -6.41274,-1.5 -7.04283,0 -7.58086,-0.14344 -6.70148,-1.78658 1.46209,-2.73194 21.36586,-13.21342 25.09158,-13.21342 l 3.17286,0 -2.93553,5.41987 c -2.8425,5.24811 -2.87135,5.43665 -0.91066,5.94939 1.70429,0.44567 1.82112,0.77501 0.73798,2.08013 -0.7078,0.85283 -2.14592,1.55061 -3.19584,1.55061 -1.04992,0 -2.16796,0.675 -2.48454,1.5 -0.36061,0.93972 -1.8887,1.5 -4.09106,1.5 -3.01147,0 -3.33699,-0.21505 -2.27057,-1.5 z m 3.78915,-7.93657 1.11018,-2.43658 -3.44967,2.03535 c -4.07081,2.40184 -4.24137,2.8378 -1.11018,2.8378 1.5088,0 2.73369,-0.86517 3.44967,-2.43657 z m 91.85615,6.74487 c -0.28956,-0.99457 -0.83006,-4.3958 -1.20111,-7.5583 -0.66161,-5.63898 -0.62664,-5.75 1.81142,-5.75 2.29555,0 2.5488,0.47893 3.3049,6.25 0.45036,3.4375 0.84599,6.7 0.87917,7.25 0.11374,1.8856 -4.24027,1.7115 -4.79438,-0.1917 z m 37.75023,-4.01652 c 0.94858,-8.07095 1.62914,-10.29178 3.15386,-10.29178 2.20019,0 2.50951,1.51649 1.82079,8.92681 -0.6225,6.69788 -0.78972,7.07319 -3.15146,7.07319 -2.44584,0 -2.48111,-0.1104 -1.82319,-5.70822 z m -23.7122,4.05822 c -1.02455,-1.02456 -0.82374,-15.35 0.21518,-15.35 1.25592,0 2.54503,13.95646 1.3953,15.10618 -0.50993,0.50994 -1.23464,0.61965 -1.61048,0.24382 z m 12.23477,-1.1 c -0.18926,-4.04394 0.27713,-13.77856 0.6794,-14.18084 0.23971,-0.2397 0.91121,0.0396 1.49223,0.62057 1.25064,1.25064 0.13127,15.31027 -1.21894,15.31027 -0.47893,0 -0.90764,-0.7875 -0.95269,-1.75 z m 51.80921,-20.85602 c -0.94615,-0.94615 6.52844,-15.34146 8.24327,-15.8757 2.75939,-0.85965 19.85206,-1.02897 20.67621,-0.20482 0.84893,0.84893 -3.61985,10.11128 -6.87483,14.24932 -1.79782,2.28556 -2.52452,2.43722 -11.67787,2.43722 -5.36842,0 -10.03347,-0.27271 -10.36678,-0.60602 z m 17.27269,-3.81219 c 0,-0.23002 0.27314,-1.13002 0.60699,-2 0.4917,-1.28135 -0.15951,-1.58179 -3.42857,-1.58179 -3.41489,0 -7.17842,1.87244 -7.17842,3.57143 0,0.23571 2.25,0.42857 5,0.42857 2.75,0 5,-0.1882 5,-0.41821 z m 4,-8.68248 c 0,-0.49462 -2.025,-0.89931 -4.5,-0.89931 -2.94709,0 -4.5,0.43385 -4.5,1.25721 0,0.87637 1.36313,1.14879 4.5,0.8993 2.475,-0.19684 4.5,-0.76259 4.5,-1.2572 z m -163.75394,9.85069 c 0.25348,-0.76771 3.14706,-1.46533 7.49963,-1.80809 6.59494,-0.51936 10.25431,-1.96976 10.25431,-4.06435 0,-0.48266 -3.15,-0.87756 -7,-0.87756 -3.85,0 -7,-0.24293 -7,-0.53984 0,-0.29691 0.90915,-2.32191 2.02032,-4.5 l 2.02033,-3.96016 10.47967,0 c 6.1841,0 10.47968,0.40209 10.47968,0.98095 0,1.30267 -3.13931,1.95328 -10.92063,2.26327 -4.24791,0.16923 -6.5683,0.70281 -6.85701,1.57681 -0.33974,1.02847 1.12643,1.25723 6.62023,1.03294 3.88114,-0.15845 7.38433,0.0396 7.78487,0.44016 0.77767,0.77767 -3.25515,8.71145 -5.05288,9.94056 -0.59102,0.40407 -5.49958,0.74158 -10.90791,0.75 -7.42537,0.0116 -9.73227,-0.29079 -9.42061,-1.23469 z m 46.26184,-12.73722 c -0.33557,-0.54297 1.37399,-4.25547 3.79903,-8.25 l 4.40916,-7.26278 11.29275,-0.28416 c 9.92305,-0.2497 11.14239,-0.10299 10.05309,1.20953 -0.85348,1.02839 -3.60123,1.58419 -8.82054,1.78417 -4.95725,0.18993 -7.72402,0.72307 -7.99447,1.54046 -0.30482,0.92128 1.44917,1.25 6.66975,1.25 7.60744,0 7.9916,0.34292 5.58904,4.98896 -2.61404,5.055 -5.02667,6.01104 -15.1692,6.01104 -5.07016,0 -9.49304,-0.44425 -9.82861,-0.98722 z m 17.2921,-4.21278 c 2.11446,-2.11446 1.30651,-2.8 -3.3,-2.8 -2.475,0 -4.5,0.1882 -4.5,0.41821 0,0.23002 -0.27314,1.13002 -0.60699,2 -0.48966,1.27605 0.14818,1.58179 3.3,1.58179 2.14885,0 4.44699,-0.54 5.10699,-1.2 z m 35.2,4.87073 c 0,-0.18111 3.40551,-2.99361 7.5678,-6.25 l 7.56779,-5.92073 -6.56779,-0.29569 c -3.61229,-0.16263 -6.5678,-0.67003 -6.5678,-1.12756 0,-2.05629 3.24243,-2.79141 13.25,-3.00404 13.13872,-0.27915 13.51105,0.4348 4,7.67011 -3.7125,2.8242 -7.74368,6.06242 -8.95819,7.19605 -1.47558,1.37732 -3.54912,2.06113 -6.25,2.06113 -2.22299,0 -4.04181,-0.14817 -4.04181,-0.32927 z"
       id="path3168"
       inkscape:connector-curvature="0" />
    <g
       id="g3825">
      <path
         sodipodi:nodetypes="sssssssscccsscsscccsssscss"
         style="fill:#ff0000"
         d="m 481.69739,1655.3691 c -6.91152,-1.5522 -8.5,-2.4943 -8.5,-5.041 0,-2.5621 0.0129,-2.5658 6.6791,-1.9433 3.6735,0.343 7.01389,0.9706 7.42307,1.3946 0.40919,0.424 0.50113,2.0084 0.20433,3.5209 -0.53728,2.7379 -1.42263,3.0533 -5.8065,2.0688 z m -2.25,-12.5139 c -4.53507,-0.8271 -5.25,-1.2709 -5.25,-3.2588 0,-2.5248 1.66677,-4.1613 4,-3.9273 0.825,0.083 3.6375,0.2024 6.25,0.2658 l 4.75,0.1154 0,4 c 0,4.5141 -0.14678,4.5563 -9.75,2.8049 z m 2,-12.5555 c -6.13313,-0.3384 -6.25,-0.3985 -6.25,-3.2118 0,-2.8326 0.0791,-2.871 6.60237,-3.2023 3.63131,-0.1844 7.04234,-0.062 7.58008,0.2732 1.23863,0.7709 0.65674,6.1951 -0.68245,6.3615 -0.55,0.068 -3.8125,-0.031 -7.25,-0.2206 z m -6.58333,-14.9161 c -0.36667,-0.3667 -0.66667,-1.4831 -0.66667,-2.4809 0,-2.0881 2.54719,-2.9295 9.62709,-3.18 4.80783,-0.1701 4.87709,-0.129 5.18627,3.0776 l 0.31336,3.25 -6.89669,0 c -3.79319,0 -7.1967,-0.3 -7.56336,-0.6667 z"
         id="path2985-8"
         inkscape:connector-curvature="0" />
      <path
         transform="matrix(0.95238095,0,0,0.94318182,-15.416851,74.515131)"
         d="m 259.60921,1672.5958 a 5.3033009,5.5558391 0 1 1 -10.6066,0 5.3033009,5.5558391 0 1 1 10.6066,0 z"
         sodipodi:ry="5.5558391"
         sodipodi:rx="5.3033009"
         sodipodi:cy="1672.5958"
         sodipodi:cx="254.30591"
         id="path2989"
         style="fill:none;stroke:#000000;stroke-width:4.22043227999999981;stroke-miterlimit:4;stroke-opacity:1;stroke-dasharray:none"
         sodipodi:type="arc" />
      <path
         sodipodi:nodetypes="csssssssssccssssccscsccccsssssssssscccsssssscssccccsscssssscssssscssssccsccscscccccsccccccscccccccsscccssssssssccssccsccscccsscccsssssscscsscssscscsscssccssssssssssccsccsccsccsccsssscscsssccccscssccsscscsccsssssscscsscsccscsssscsscssccsssscssccccccccccccscscccscsccsccscccsssccsssccsssscssscsscscssccsscssscssssssssccssssccccscsssssccscscsccssscssscccssssssssssssssscccccsccssccccscscssssssccssccsssscsssssssssssssccccscccsscccsccsssccscscssscssscsssscssscsssssssssscsscccsscsscscscssssssscscscscsccscscsccsscsssscssssscsccsccssscscssscssssssscsscsssscssscccccscscscccsssccsssscssccssssss"
         style="fill:#000000"
         d="m 311.68456,1782.6466 c -1.65,-0.729 -35.4,-22.8937 -75,-49.2549 -39.6,-26.3613 -77.07836,-51.2315 -83.28524,-55.2672 -6.20688,-4.0356 -11.74295,-8.1928 -12.30238,-9.2381 -1.97544,-3.6911 -3.98645,-18.5216 -4.5882,-33.8362 -2.4717,-62.9058 23.50022,-122.6588 71.17582,-163.7527 83.75306,-72.1908 207.35009,-67.551 285.49195,10.7172 76.36032,76.4837 80.27353,197.8799 9.03848,280.3923 -10.74472,12.4457 -15.96045,17.2537 -21.39342,19.7207 -3.93988,1.789 -7.99679,1.8777 -85.13701,1.8614 -65.05063,-0.014 -81.59072,-0.2782 -84,-1.3425 z m 169.05153,-2.9682 c 7.86925,-3.6644 27.17718,-25.4632 38.10151,-43.0169 33.51251,-53.8495 41.1523,-115.8143 21.49674,-174.3557 -29.74637,-88.5955 -117.29503,-146.564 -210.51925,-139.3908 -102.00229,7.8487 -181.07547,85.4393 -190.71073,187.1352 -1.72459,18.2022 0.49332,51.3179 3.85587,57.5719 0.57017,1.0604 5.24139,4.6154 10.3805,7.8999 5.1391,3.2844 42.41883,27.9902 82.84383,54.9017 40.425,26.9114 75.075,49.5168 77,50.2343 2.76683,1.0312 20.15346,1.3115 83,1.3385 l 79.5,0.034 5.05153,-2.3522 z m -165.55153,-1.9909 c -1.925,-0.7013 -36.35,-23.0884 -76.5,-49.7493 -40.15,-26.6609 -77.36253,-51.2975 -82.69452,-54.7481 -7.64982,-4.9505 -9.90265,-6.9451 -10.68132,-9.4568 -3.43562,-11.0823 -4.29862,-45.9924 -1.58948,-64.2979 4.58311,-30.9679 15.1663,-58.5259 32.21466,-83.8853 30.14267,-44.837 75.60883,-75.1066 129.2929,-86.0781 15.32197,-3.1314 46.6169,-4.3906 62.53535,-2.5162 68.03675,8.0113 126.0832,48.0475 157.65145,108.7365 14.96919,28.7778 21.91225,57.704 21.92836,91.3579 0.0153,32.0462 -6.94267,61.621 -21.17414,90 -12.80909,25.5426 -39.35021,58.0638 -49.74214,60.9499 -5.87584,1.6318 -156.70599,1.3394 -161.24112,-0.3126 z m 162.82492,-5.0468 c 3.87523,-2.0039 17.52895,-16.527 25.31339,-26.9251 18.82459,-25.1451 31.84882,-55.015 37.35286,-85.6654 2.59253,-14.4371 3.12117,-43.6429 1.05888,-58.5 -9.32097,-67.1502 -50.3845,-123.1816 -111.76338,-152.5016 -79.44969,-37.9523 -176.76658,-17.9149 -234.95595,48.3772 -31.7915,36.2184 -48.87293,81.8596 -48.8124,130.4256 0.0175,14.0696 2.1663,34.9122 3.73575,36.2361 0.41026,0.3461 17.39593,11.6089 37.74593,25.0285 20.35,13.4196 57.475,38.0163 82.5,54.6594 l 45.5,30.2602 79.79966,0.01 c 66.70947,0.01 80.24676,-0.2239 82.52526,-1.4022 z m 19.17508,-104.1191 c 0,-0.2906 1.388,-3.2781 3.08445,-6.6387 2.26554,-4.488 2.76252,-6.3093 1.87189,-6.8597 -2.27417,-1.4055 0.15255,-2.973 4.60268,-2.973 2.44254,0 4.44098,0.2841 4.44098,0.6313 0,0.3472 -1.88667,4.1722 -4.1926,8.5 -3.70883,6.9607 -4.51654,7.8687 -7,7.8687 -1.54407,0 -2.8074,-0.2379 -2.8074,-0.5286 z m 10.2131,-1.1131 c 1.13899,-1.139 3.88384,-1.7518 8.96428,-2.0013 8.11347,-0.3985 9.82262,-0.8032 9.82262,-2.3257 0,-0.6027 -2.70147,-1.0313 -6.5,-1.0313 -3.575,0 -6.5,-0.3949 -6.5,-0.8776 0,-1.9963 2.96809,-3.0384 9.46199,-3.322 4.38665,-0.1916 7.02825,-0.7533 7.29165,-1.5504 0.30795,-0.932 -1.67451,-1.25 -7.79275,-1.25 -7.18064,0 -8.05026,-0.1874 -6.96089,-1.5 0.96695,-1.1651 3.67346,-1.5 12.12244,-1.5 6.0689,0 10.87756,0.4127 10.87756,0.9335 0,0.5135 -1.43046,3.326 -3.17879,6.25 -1.74834,2.9241 -3.78371,6.329 -4.52305,7.5665 -1.2716,2.1283 -1.97622,2.25 -13.0355,2.25 -10.84061,0 -11.57179,-0.1195 -10.04956,-1.6417 z m -323.49424,-11.7281 c -0.8521,2.0807 -1.65799,1.8647 -11.73242,2.3698 -5.42082,0.2718 -10.10062,-0.3758 -10.38444,-0.835 -0.28381,-0.4592 1.37713,-4.1717 3.69099,-8.25 l 4.20701,-7.415 13.5,-0.6461 c 8.9069,-0.2425 8.99656,-2.3434 0.71886,14.7763 z m -1.68881,-9.2326 c 1.08105,-1.9052 -2.66246,-1.3144 -5.70862,-1.2703 -3.78416,-0.3289 -4.0783,2.5018 -5.70353,5.6447 l -1.66926,3.228 4.77568,-0.063 c 3.08508,0.051 4.42699,0.068 5.09145,-0.9319 z m 298.46995,15.0773 c -0.55,-0.202 -2.9125,-0.8588 -5.25,-1.4596 -4.1036,-1.0548 -5.52268,-3.1107 -3.1565,-4.5731 1.25377,-0.7749 12.72374,1.453 13.43902,2.6104 1.49474,2.4185 -1.75239,4.6267 -5.03252,3.4223 z m 1,-13.972 c -0.55,-0.1865 -2.70001,-0.6237 -4.77779,-0.9716 -2.30199,-0.3853 -3.52091,-1.048 -3.12023,-1.6963 0.63615,-1.0294 10.67152,-0.4348 13.9598,0.827 3.53401,1.3562 -2.28271,3.1226 -6.06178,1.8409 z m -65.53364,-7.3232 c -5.48955,-2.433 -9.95688,-8.7983 -9.96262,-14.1953 -0.005,-4.6686 2.91579,-9.9452 7.09787,-12.8229 2.85705,-1.966 4.33675,-2.2728 9.28917,-1.926 5.38914,0.3773 6.21943,0.7648 9.75,4.5497 3.49006,3.7416 3.85922,4.653 3.85922,9.5282 0,6.4695 -2.78198,11.3034 -8.01993,13.935 -3.49767,1.7573 -9.15967,2.1962 -12.01371,0.9313 z m 13.28364,-7.1338 c 4.14577,-4.6395 3.85649,-10.1394 -0.77701,-14.7729 -3.23472,-3.2348 -3.90106,-3.4849 -8.04058,-3.0183 -5.26159,0.5931 -7.919,2.6596 -9.47232,7.3662 -3.67488,11.135 10.45749,19.1903 18.28991,10.425 z m -13.90267,-2.5832 c -0.32444,-0.8455 0.15104,-2.3559 1.05662,-3.3566 1.47101,-1.6254 1.48393,-1.9543 0.12128,-3.0852 -0.83888,-0.6962 -1.52523,-1.8857 -1.52523,-2.6434 0,-1.6363 3.14287,-1.8347 4.6821,-0.2954 0.77614,0.7761 1.67389,0.7125 3.17504,-0.225 1.65814,-1.0355 2.34891,-1.0511 3.32504,-0.075 0.97614,0.9761 0.89218,1.572 -0.40414,2.8684 -1.49543,1.4954 -1.50046,1.8434 -0.0585,4.0442 2.20794,3.3697 0.21414,5.4602 -2.69592,2.8266 -1.88674,-1.7075 -2.14734,-1.7194 -3.85237,-0.1764 -2.27033,2.0547 -3.07121,2.0793 -3.82392,0.1178 z m 64.90267,3.8 c -3.85049,-0.2693 -5.25,-0.7693 -5.25,-1.8755 0,-1.2693 1.1492,-1.3988 7.25,-0.8176 3.9875,0.3799 7.40756,0.8272 7.60014,0.994 0.85364,0.7394 -1.12979,2.4187 -2.65916,2.2514 -0.93004,-0.1018 -4.05348,-0.3503 -6.94098,-0.5523 z m -314.66395,-12.5127 c 3.86934,-7.1792 4.00128,-7.75 1.7915,-7.75 -1.32879,0 -1.39712,-0.2715 -0.37755,-1.5 1.39412,-1.6798 10,-2.1244 10,-0.5166 0,0.5409 -1.67368,4.3659 -3.71929,8.5 -3.61978,7.3155 -3.81752,7.5166 -7.39123,7.5166 l -3.67194,0 z m 332.43207,2.5 c 0.01,-0.4125 1.35996,-3.1844 3,-6.1598 3.44679,-6.2532 3.59917,-7.0902 1.29075,-7.0902 -1.47465,0 -1.44265,-0.188 0.25,-1.4682 2.22677,-1.6843 9.44113,-2.0547 9.44113,-0.4847 0,0.5759 -1.84067,4.4009 -4.09039,8.5 -3.63637,6.6256 -4.41333,7.4529 -7,7.4529 -1.60028,0 -2.90146,-0.3375 -2.89149,-0.75 z m 9.98188,0.4036 c 0,-0.1905 0.68221,-1.7139 1.51603,-3.3853 1.66204,-3.3317 3.74462,-4.3828 13.48397,-6.8061 9.62154,-2.3939 9.66122,-3.4622 0.12857,-3.4622 -7.35238,0 -8.10476,-0.1667 -6.77143,-1.5 1.13475,-1.1348 3.95238,-1.5 11.57143,-1.5 9.12275,0 10.07143,0.1738 10.07143,1.845 0,3.0661 -3.43142,5.2145 -11.66856,7.3058 -4.30729,1.0935 -8.49037,2.6319 -9.29573,3.4187 -1.27257,1.2432 -0.30734,1.4305 7.37245,1.4305 7.74149,0 8.68244,0.1859 7.59184,1.5 -0.97309,1.1725 -3.72901,1.5 -12.62244,1.5 -6.25766,0 -11.37756,-0.1559 -11.37756,-0.3464 z m -309,-3.1974 c 0,-2.5182 0.073,-2.5409 7.25,-2.25 6.65277,0.2696 7.27632,0.4791 7.56955,2.5438 0.30724,2.1633 0.0279,2.25 -7.25,2.25 -7.44228,0 -7.56955,-0.043 -7.56955,-2.5438 z m 276,-0.7943 c 0,-2.1163 0.58292,-2.6807 3.294,-3.1893 1.81171,-0.3398 5.07421,-0.4727 7.25,-0.2953 3.22179,0.2628 4.01531,0.7403 4.27555,2.5727 0.29683,2.09 -0.0587,2.2509 -5,2.2636 -2.92575,0.01 -6.33205,0.285 -7.56955,0.6167 -1.90631,0.5108 -2.25,0.2102 -2.25,-1.9684 z m -264,-10.2206 c -0.825,-0.1728 -3.6375,-0.5954 -6.25,-0.9391 -5.1555,-0.6781 -6.53296,-2.5022 -1.88957,-2.5022 5.59412,0 12.20694,1.2978 11.86343,2.3284 -0.40196,1.2059 -1.58799,1.5603 -3.72386,1.1129 z m 262.58609,-2.302 c -0.78495,-1.2701 5.53097,-3.1261 10.66391,-3.1338 3.39252,-0.01 4.92351,1.1798 3,2.3217 -1.86928,1.1096 -13.06862,1.7753 -13.66391,0.8121 z M 208.93456,1597.211 c -4.27785,-0.9261 -6.75,-1.9556 -6.75,-2.811 0,-1.6676 -0.33391,-1.6772 8.05259,0.2303 6.26479,1.4249 8.30338,2.6327 6.19741,3.6719 -0.4125,0.2035 -3.7875,-0.2875 -7.5,-1.0912 z m 262.91667,-0.8275 c -1.43418,-1.4342 -0.45252,-2.0609 5.08333,-3.2454 3.1625,-0.6767 6.5375,-1.4536 7.5,-1.7265 1.12682,-0.3195 1.75,0.055 1.75,1.0521 0,0.8766 -1.19315,1.8094 -2.75,2.1501 -1.5125,0.3309 -4.05465,1.0145 -5.64922,1.519 -3.4409,1.0887 -5.02898,1.1558 -5.93411,0.2507 z m -259.60484,-10.7616 c -6.59945,-2.2559 -7.62428,-3.1334 -6.22916,-5.3337 0.58593,-0.9241 1.5856,-1.0042 3.73375,-0.2989 1.61347,0.5297 4.84608,1.4524 7.18358,2.0505 4.54845,1.1638 4.95677,1.7362 3,4.2055 -1.13002,1.426 -1.86796,1.3662 -7.68817,-0.6234 z m 256.63594,-0.2073 c -0.38378,-0.3838 -0.69777,-1.4515 -0.69777,-2.3728 0,-1.9263 10.78909,-5.6703 13.42522,-4.6587 3.28534,1.2607 1.56024,3.5294 -3.88814,5.1132 -3.0046,0.8735 -6.0656,1.8194 -6.80223,2.1021 -0.73663,0.2827 -1.65331,0.1999 -2.03708,-0.1838 z m -305.60446,-6.6145 c 2.30227,-4.4514 4.22243,-5.6459 12.74857,-7.9302 l 8.65812,-2.3198 -7.25,-0.2938 c -3.9875,-0.1616 -7.25,-0.6341 -7.25,-1.05 0,-2.3715 3.03283,-3.1562 12.2,-3.1562 8.85892,0 9.8,0.1772 9.8,1.8451 0,2.9996 -3.15184,5.0066 -12.04135,7.6673 -11.7797,3.5258 -12.10895,4.4876 -1.53621,4.4876 7.72879,0 8.66813,0.186 7.57756,1.5 -0.9735,1.173 -3.73292,1.5 -12.65763,1.5 l -11.41274,0 z m 326.90669,0.7558 c 0,-0.8476 4.96483,-9.7761 6.09213,-10.9558 1.39058,-1.4551 1.08376,-2.55 -0.71457,-2.55 -1.3288,0 -1.39713,-0.2714 -0.37756,-1.5 1.25952,-1.5176 9.04296,-2.1697 8.9519,-0.75 -0.0265,0.4125 -1.71687,4.125 -3.75647,8.25 -3.36865,6.813 -4.0055,7.5288 -6.9519,7.8134 -1.78394,0.1724 -3.24353,0.034 -3.24353,-0.3076 z m 23,-0.1094 c 0,-0.4016 1.56649,-3.5801 3.48108,-7.0633 2.57969,-4.6932 3.09757,-6.3331 2,-6.3331 -1.79095,0 -1.90864,-1.1724 -0.28108,-2.8 1.37311,-1.3731 9.8,-1.6507 9.8,-0.3228 0,0.4824 -1.9554,4.4199 -4.34534,8.75 -3.85802,6.9899 -4.69914,7.908 -7.5,8.1862 -1.73506,0.1724 -3.15466,-0.015 -3.15466,-0.417 z m -296.5,-6.9616 c -2.75,-1.3241 -5.41717,-2.5527 -5.92705,-2.7302 -0.50988,-0.1774 -0.61398,-0.8291 -0.23134,-1.4483 0.48099,-0.7782 2.84236,-0.1775 7.65112,1.9465 3.82548,1.6897 6.71553,3.4603 6.42233,3.9347 -0.79999,1.2944 -2.40977,0.9481 -7.91506,-1.7027 z m 247.5,0.2491 c 0,-2.0206 11.75021,-7.3336 13.14167,-5.9422 0.82646,0.8265 -0.65358,1.924 -5.64923,4.1891 -7.81502,3.5435 -7.49244,3.468 -7.49244,1.7531 z m -241.5,-11.7665 c -2.75,-1.5773 -5.45,-3.0477 -6,-3.2676 -0.66421,-0.2655 -0.66115,-0.7638 0.009,-1.4839 1.21775,-1.3082 13.85903,5.4294 12.94909,6.9018 -0.78617,1.272 -1.2317,1.1343 -6.95821,-2.1503 z m 235.98736,1.0622 c -0.3782,-0.6119 -0.53007,-1.2212 -0.3375,-1.354 5.01219,-3.455 12.94508,-7.281 13.43916,-6.4815 0.82601,1.3365 0.0541,1.9987 -6.75152,5.792 -3.80922,2.1231 -5.88757,2.792 -6.35014,2.0435 z m -176.48736,-7.4796 c 0.68469,-0.825 1.86479,-1.5 2.62244,-1.5 1.69656,0 1.79838,-2.1791 0.17756,-3.8 -0.93333,-0.9333 -0.75556,-1.2 0.8,-1.2 1.1,0 2.54,0.54 3.2,1.2 0.93333,0.9334 1.46667,0.9334 2.4,0 0.66,-0.66 2.1225,-1.1838 3.25,-1.164 1.84496,0.032 1.76411,0.2698 -0.80839,2.374 -1.81197,1.4821 -2.45262,2.5888 -1.75,3.0231 0.60961,0.3767 1.10839,1.1084 1.10839,1.626 0,1.2587 -3.71709,1.2077 -4.50167,-0.062 -0.41425,-0.6703 -1.24086,-0.6703 -2.49328,0 -1.03046,0.5514 -2.63325,1.0027 -3.56175,1.0027 -1.38723,0 -1.46626,-0.2674 -0.4433,-1.5 z m 13,0.9504 c 0,-0.3023 0.69339,-1.8905 1.54087,-3.5294 0.84747,-1.6388 1.23982,-3.4668 0.87188,-4.0621 -0.84189,-1.3622 1.38695,-2.8235 4.33725,-2.8435 2.79413,-0.019 2.79431,-0.023 -0.26685,6.0179 -1.74315,3.4399 -3.12647,4.9667 -4.5,4.9667 -1.09073,0 -1.98315,-0.2473 -1.98315,-0.5496 z m 7.661,-4.6526 2.839,-5.2978 6.25,-0.2977 c 7.1544,-0.3408 7.44609,0.1236 3.956,6.2977 -2.25633,3.9916 -2.27544,4.0007 -9.07255,4.2978 l -6.81146,0.2977 z m 7.26027,2.2022 c 0.41674,0 1.27028,-1.125 1.89678,-2.5 0.99991,-2.1945 0.90428,-2.5 -0.78278,-2.5 -1.05703,0 -2.62238,1.0002 -3.47857,2.2226 -1.99314,2.8456 -1.98343,4.1552 0.0251,3.3844 0.86997,-0.3338 1.92274,-0.607 2.33947,-0.607 z m 5.07873,2.2415 c 0,-0.4674 1.34009,-2.963 2.97798,-5.5457 l 2.97797,-4.6958 6.02203,0 c 6.85101,0 7.10654,0.4559 3.64328,6.5 -2.27659,3.9732 -2.33678,4.002 -8.95663,4.2957 -3.66554,0.1627 -6.66463,-0.087 -6.66463,-0.5542 z m 11.65591,-4.7493 c 1.048,-2.2595 0.94628,-2.4922 -1.08948,-2.4922 -1.42467,0 -2.66175,0.9138 -3.38448,2.5 -1.0298,2.2602 -0.92528,2.4993 1.08949,2.4922 1.39475,0 2.66104,-0.9402 3.38447,-2.5 z m 3.34409,4.9746 c 0,-0.2933 1.13258,-2.7683 2.51685,-5.5 l 2.51684,-4.9668 6.48316,0 c 3.56573,0 6.48315,0.24 6.48315,0.5333 0,0.2933 -1.13258,2.7683 -2.51685,5.5 l -2.51684,4.9667 -6.48316,0 c -3.56573,0 -6.48315,-0.2399 -6.48315,-0.5332 z m 10.96482,-4.401 c 1.43555,-2.6824 1.31929,-3.0658 -0.92964,-3.0658 -1.67655,0 -4.03518,2.5919 -4.03518,4.4343 0,1.4594 4.04859,0.3435 4.96482,-1.3685 z m 4.03518,4.0153 c 0,-0.5054 0.7875,-2.3026 1.75,-3.9937 1.63791,-2.8778 2.12209,-3.0751 7.55902,-3.081 3.61947,0 5.57606,0.3706 5.19098,0.9936 -0.33992,0.55 -2.15492,1 -4.03334,1 -2.78336,0 -3.70235,0.5551 -4.96666,3 -1.43996,2.7846 -5.5,4.3208 -5.5,2.0811 z m 21.49116,-0.095 c -0.70796,-1.1455 2.19659,-6.9546 3.53452,-7.069 1.03818,-0.089 10.79834,0.069 13.72432,0.2225 0.9625,0.05 5.125,-0.177 9.25,-0.5053 9.28249,-0.7386 10.81438,-0.014 9.03826,4.2737 -0.92403,2.2308 -1.94362,3.0924 -3.65958,3.0924 -2.42387,0 -3.18642,-1.3828 -1.37868,-2.5 1.69805,-1.0495 1.10539,-2.5 -1.02144,-2.5 -1.18578,0 -2.49233,1.0335 -3.16051,2.5 -0.74953,1.645 -1.95119,2.5 -3.51375,2.5 -2.14394,0 -2.26055,-0.2186 -1.2002,-2.25 0.96803,-1.8545 0.70979,-1.7568 -1.46924,0.5563 -2.95467,3.1364 -5.31647,2.8358 -3.55654,-0.4526 0.59604,-1.1138 0.82226,-2.2865 0.5027,-2.606 -0.31956,-0.3196 -0.58102,-0.056 -0.58102,0.5856 0,1.7259 -3.9187,5.335 -5.04014,4.6419 -0.53196,-0.3288 -0.73786,-1.8077 -0.45755,-3.2865 l 0.50965,-2.6887 -1.08931,2.75 c -0.96364,2.4327 -1.97985,3.009 -4.67265,2.65 -0.78738,-0.105 -0.78064,-0.2006 0.23956,-3.4 0.38279,-1.2005 0.0247,-0.948 -0.89572,0.6314 -1.68555,2.8924 -4.20732,4.303 -5.10268,2.8543 z m -12.49116,-0.3442 c 0,-1.0988 11.41762,-7.705 12.82368,-7.4198 2.06614,0.4192 -8.3982,7.7782 -11.06033,7.7782 -0.96984,0 -1.76335,-0.1612 -1.76335,-0.3584 z m -126.25,-4.3829 c -4.70256,-3.6608 -5.72708,-5.5368 -3.70602,-6.7858 1.06081,-0.6557 3.81632,0.8267 9.75514,5.2478 2.64876,1.9719 3.06816,2.7343 2.12755,3.8677 -1.73497,2.0905 -2.93956,1.7473 -8.17667,-2.3297 z m 223.85699,1.1596 c -0.33385,-0.87 -0.60699,-1.6952 -0.60699,-1.8338 0,-1.1404 11.3015,-7.6827 12.48621,-7.2281 2.67329,1.0258 1.57999,3.0529 -3.71798,6.8936 -5.69099,4.1257 -7.25107,4.5401 -8.16124,2.1683 z m -64.60699,-5.9183 c 0,-0.8333 0.88889,-1.5 2,-1.5 1.11111,0 2,0.6667 2,1.5 0,0.8334 -0.88889,1.5 -2,1.5 -1.11111,0 -2,-0.6666 -2,-1.5 z m -151.00492,-6.5065 c -3.02229,-2.6519 -5.16903,-5.1489 -4.77052,-5.5488 0.78168,-0.7844 11.77544,7.2614 11.77544,8.6179 0,2.2039 -1.98831,1.3327 -7.00492,-3.0691 z m 208.17159,2.1064 c 0.62583,-1.6901 10.29259,-9.1 11.815,-9.0566 1.83666,0.052 -8.9042,9.9299 -10.815,9.9457 -0.73334,0.01 -1.18334,-0.394 -1,-0.8891 z m -262.5283,-6.5999 c 0.44376,-1.1564 2.36716,-1.5 8.39719,-1.5 6.11351,0 8.20506,-0.3821 9.57759,-1.75 1.67301,-1.6672 1.41644,-1.7638 -5.42857,-2.0438 -3.95152,-0.1616 -7.18458,-0.669 -7.18458,-1.1275 0,-1.9519 3.01553,-2.9967 9.46199,-3.2782 4.66626,-0.2038 7.02186,-0.7337 7.32398,-1.6475 0.3468,-1.0489 -0.96344,-1.3001 -5.9203,-1.1349 -9.82121,0.3271 -10.32536,0.2408 -8.86567,-1.5181 1.65489,-1.994 23.00768,-2.2262 22.98678,-0.25 -0.007,0.6875 -1.82254,4.5125 -4.03394,8.5 l -4.02072,7.25 -11.43467,0 c -9.75332,0 -11.35004,-0.2205 -10.85908,-1.5 z m 286.9512,-1.6821 c 0.94113,-1.8248 2.77413,-5.0054 4.07333,-7.0679 1.96115,-3.1133 2.09125,-3.75 0.76631,-3.75 -0.87773,0 -1.4107,-0.5625 -1.18437,-1.25 0.45161,-1.3718 9.75516,-2.3691 9.75516,-1.0457 0,0.4477 -1.9125,4.1848 -4.25,8.3048 -3.80963,6.7148 -4.59305,7.5239 -7.56079,7.8088 l -3.31079,0.3179 z m 10.41043,2.1572 c 0,-1.8957 7.05755,-15.0607 8.28517,-15.455 2.69968,-0.867 19.76387,-1.2497 20.25551,-0.4542 0.59932,0.9697 -4.96006,12.5207 -7.30796,15.1841 -1.27268,1.4437 -3.26587,1.75 -11.38771,1.75 -6.05653,0 -9.84501,-0.3944 -9.84501,-1.0249 z m 18.75449,-7.2251 c 1.23809,-2.3375 2.24982,-4.5875 2.24829,-5 -0.002,-0.4125 -1.97892,-0.75 -4.3942,-0.75 -4.21362,0 -4.46526,0.1721 -6.21524,4.25 -1.0031,2.3375 -1.98946,4.5875 -2.19191,5 -0.20245,0.4125 1.58268,0.75 3.96695,0.75 4.08029,0 4.46735,-0.2497 6.58611,-4.25 z m -253.04208,1.4657 c -4.56182,-4.6315 -5.56349,-6.2157 -3.9301,-6.2157 1.06696,0 10.21769,9.0912 10.21769,10.1512 0,1.7744 -1.73016,0.6915 -6.28759,-3.9355 z m 191.28759,2.9968 c 0,-1.412 9.93364,-10.6121 10.66667,-9.8791 0.39201,0.392 -1.4932,2.9524 -4.18937,5.6897 -4.68125,4.7527 -6.4773,5.9143 -6.4773,4.1894 z m -181.44408,-8.9625 c -1.61925,-2.0625 -3.53175,-4.1098 -4.25,-4.5496 -1.70421,-1.0436 -1.66403,-3.1583 0.0876,-4.612 1.11801,-0.9279 2.32845,-0.062 6.12196,4.3781 3.93243,4.603 4.51894,5.7871 3.48401,7.0341 -1.75598,2.1158 -2.14028,1.957 -5.4436,-2.2506 z m 172.97201,1.3941 c -1.76807,-1.2928 -1.63657,-1.6553 2.54057,-7.0037 2.42284,-3.1022 4.69348,-5.6404 5.04588,-5.6404 0.3524,0 1.20048,0.6745 1.88462,1.4988 1.19038,1.4344 -0.0186,3.4723 -6.97357,11.755 -0.34811,0.4146 -1.47198,0.1402 -2.4975,-0.6097 z m -163.63893,-11.1571 c -1.16668,-2.482 -2.51899,-4.7586 -3.00512,-5.059 -1.31444,-0.8124 -1.06903,-2.4304 0.36612,-2.4138 0.6875,0.01 2.59746,2.3704 4.24434,5.25 3.96314,6.9295 3.90285,6.7355 2.09412,6.7355 -0.8911,0 -2.50175,-1.9647 -3.69946,-4.5127 z m 153.71644,3.6834 c -0.87138,-1.41 7.53113,-13.4341 8.62403,-12.3412 0.63558,0.6356 -0.46932,3.106 -3.16365,7.0736 -4.30492,6.3393 -4.61383,6.6373 -5.46038,5.2676 z m -143.92649,-11.4081 c -3.20427,-5.7049 -3.87553,-8.6201 -1.67115,-7.2577 1.20369,0.7439 6.9922,10.9819 6.9922,12.3669 0,2.6736 -2.06125,0.6945 -5.32105,-5.1092 z m 132.4949,4.4874 c 3.35117,-7.3811 7.14832,-13.3278 7.97947,-12.4966 1.38166,1.3816 -4.66523,13.2466 -6.75105,13.2466 -0.86291,0 -1.4157,-0.3375 -1.22842,-0.75 z m -121.20388,-8 c -2.67745,-5.9887 -2.99042,-9.563 -0.87596,-10.0041 1.11223,-0.2319 2.39678,1.4564 4.25,5.5859 1.4608,3.2551 2.65599,6.3764 2.65599,6.9363 0,0.8489 -2.19046,2.2319 -3.53499,2.2319 -0.20428,0 -1.32705,-2.1375 -2.49504,-4.75 z m 110.29849,2.5 c -0.67071,-0.8586 -0.0818,-3.2069 1.88087,-7.5 2.94543,-6.4427 3.37267,-6.8385 5.75407,-5.3308 1.16362,0.7367 0.92442,2.0155 -1.40002,7.4847 -2.75805,6.4894 -4.30543,7.8162 -6.23492,5.3461 z m -98.22828,-9.3553 c -2.29342,-7.4252 -2.42414,-8.3947 -1.13198,-8.3947 0.91096,0 5.0918,11.2442 5.0918,13.6942 0,3.4681 -2.13383,0.6124 -3.95982,-5.2995 z m 86.95982,4.8829 c 0,-0.4891 0.94131,-3.6766 2.0918,-7.0834 1.98717,-5.8843 4.00112,-8.2224 3.82803,-4.4442 -0.14761,3.2221 -3.40518,11.6007 -4.66983,12.0111 -0.6875,0.2231 -1.25,0.01 -1.25,-0.4835 z m 57,-2.1551 c 0,-2.0677 3.08958,-3.0496 10.46713,-3.3267 5.18694,-0.1949 8.01344,-0.7222 8.28595,-1.5458 0.3046,-0.9206 -1.43736,-1.25 -6.61073,-1.25 -3.86337,0 -7.24967,-0.3646 -7.5251,-0.8102 -0.27543,-0.4457 0.62352,-2.6957 1.99766,-5 l 2.49845,-4.1898 10.44332,0 c 6.48858,0 10.44332,0.3895 10.44332,1.0286 0,1.6221 -5.73946,12.568 -7.52769,14.3563 -1.28039,1.2804 -3.77673,1.6151 -12.04374,1.6151 -5.73571,0 -10.42857,-0.3949 -10.42857,-0.8775 z m 22,-11.6225 c 1.07843,-1.2994 0.57423,-1.5 -3.77057,-1.5 -3.53569,0 -5.18528,0.4426 -5.59106,1.5 -0.45723,1.1916 0.31815,1.5 3.77057,1.5 2.64331,0 4.83393,-0.5877 5.59106,-1.5 z m -152.96177,7.75 c -1.87259,-6.6512 -2.36846,-11.25 -1.21304,-11.25 1.12307,0 2.74415,4.7849 3.81139,11.25 0.39653,2.4021 0.23055,3.75 -0.46177,3.75 -0.59444,0 -1.5559,-1.6875 -2.13658,-3.75 z m 62.38743,0.1285 c 1.26806,-7.0617 2.63871,-11.3785 3.61288,-11.3785 2.10378,0 -0.6726,14.0507 -2.92393,14.7975 -1.09637,0.3636 -1.2401,-0.3497 -0.68895,-3.419 z m -146.42566,1.1215 c 1.08814,-1.3111 0.28066,-1.5 -6.41274,-1.5 -7.04283,0 -7.58086,-0.1434 -6.70148,-1.7865 1.46209,-2.732 21.36586,-13.2135 25.09158,-13.2135 l 3.17286,0 -2.93553,5.4199 c -2.8425,5.2481 -2.87135,5.4367 -0.91066,5.9494 1.70429,0.4457 1.82112,0.775 0.73798,2.0801 -0.7078,0.8529 -2.14592,1.5506 -3.19584,1.5506 -1.04992,0 -2.16796,0.675 -2.48454,1.5 -0.36061,0.9398 -1.8887,1.5 -4.09106,1.5 -3.01147,0 -3.33699,-0.215 -2.27057,-1.5 z m 3.78915,-7.9365 1.11018,-2.4366 -3.44967,2.0353 c -4.07081,2.4019 -4.24137,2.8378 -1.11018,2.8378 1.5088,0 2.73369,-0.8651 3.44967,-2.4365 z m 91.85615,6.7448 c -0.28956,-0.9945 -0.83006,-4.3958 -1.20111,-7.5583 -0.66161,-5.6389 -0.62664,-5.75 1.81142,-5.75 2.29555,0 2.5488,0.479 3.3049,6.25 0.45036,3.4375 0.84599,6.7 0.87917,7.25 0.11374,1.8856 -4.24027,1.7115 -4.79438,-0.1917 z m 37.75023,-4.0165 c 0.94858,-8.0709 1.62914,-10.2918 3.15386,-10.2918 2.20019,0 2.50951,1.5165 1.82079,8.9269 -0.6225,6.6978 -0.78972,7.0731 -3.15146,7.0731 -2.44584,0 -2.48111,-0.1104 -1.82319,-5.7082 z m -23.7122,4.0582 c -1.02455,-1.0245 -0.82374,-15.35 0.21518,-15.35 1.25592,0 2.54503,13.9565 1.3953,15.1062 -0.50993,0.51 -1.23464,0.6197 -1.61048,0.2438 z m 12.23477,-1.1 c -0.18926,-4.0439 0.27713,-13.7785 0.6794,-14.1808 0.23971,-0.2397 0.91121,0.04 1.49223,0.6206 1.25064,1.2506 0.13127,15.3102 -1.21894,15.3102 -0.47893,0 -0.90764,-0.7875 -0.95269,-1.75 z m 51.80921,-20.856 c -0.94615,-0.9461 6.52844,-15.3414 8.24327,-15.8757 2.75939,-0.8596 19.85206,-1.0289 20.67621,-0.2048 0.84893,0.8489 -3.61985,10.1113 -6.87483,14.2493 -1.79782,2.2856 -2.52452,2.4372 -11.67787,2.4372 -5.36842,0 -10.03347,-0.2727 -10.36678,-0.606 z m 17.27269,-3.8122 c 0,-0.23 0.27314,-1.13 0.60699,-2 0.4917,-1.2813 -0.15951,-1.5818 -3.42857,-1.5818 -3.41489,0 -7.17842,1.8725 -7.17842,3.5715 0,0.2357 2.25,0.4285 5,0.4285 2.75,0 5,-0.1882 5,-0.4182 z m 4,-8.6824 c 0,-0.4947 -2.025,-0.8994 -4.5,-0.8994 -2.94709,0 -4.5,0.4339 -4.5,1.2573 0,0.8763 1.36313,1.1487 4.5,0.8993 2.475,-0.1969 4.5,-0.7626 4.5,-1.2572 z m -163.75394,9.8506 c 0.25348,-0.7677 3.14706,-1.4653 7.49963,-1.808 6.59494,-0.5194 10.25431,-1.9698 10.25431,-4.0644 0,-0.4827 -3.15,-0.8776 -7,-0.8776 -3.85,0 -7,-0.2429 -7,-0.5398 0,-0.2969 0.90915,-2.3219 2.02032,-4.5 l 2.02033,-3.9602 10.47967,0 c 6.1841,0 10.47968,0.4021 10.47968,0.981 0,1.3027 -3.13931,1.9533 -10.92063,2.2633 -4.24791,0.1692 -6.5683,0.7028 -6.85701,1.5768 -0.33974,1.0284 1.12643,1.2572 6.62023,1.0329 3.88114,-0.1584 7.38433,0.04 7.78487,0.4402 0.77767,0.7776 -3.25515,8.7114 -5.05288,9.9405 -0.59102,0.4041 -5.49958,0.7416 -10.90791,0.75 -7.42537,0.012 -9.73227,-0.2908 -9.42061,-1.2347 z m 46.26184,-12.7372 c -0.33557,-0.5429 1.37399,-4.2554 3.79903,-8.25 l 4.40916,-7.2628 11.29275,-0.2841 c 9.92305,-0.2497 11.14239,-0.103 10.05309,1.2095 -0.85348,1.0284 -3.60123,1.5842 -8.82054,1.7842 -4.95725,0.1899 -7.72402,0.7231 -7.99447,1.5404 -0.30482,0.9213 1.44917,1.25 6.66975,1.25 7.60744,0 7.9916,0.343 5.58904,4.989 -2.61404,5.055 -5.02667,6.011 -15.1692,6.011 -5.07016,0 -9.49304,-0.4442 -9.82861,-0.9872 z m 17.2921,-4.2128 c 2.11446,-2.1144 1.30651,-2.8 -3.3,-2.8 -2.475,0 -4.5,0.1882 -4.5,0.4183 0,0.23 -0.27314,1.13 -0.60699,2 -0.48966,1.276 0.14818,1.5817 3.3,1.5817 2.14885,0 4.44699,-0.54 5.10699,-1.2 z m 35.2,4.8708 c 0,-0.1811 3.40551,-2.9936 7.5678,-6.25 l 7.56779,-5.9208 -6.56779,-0.2956 c -3.61229,-0.1627 -6.5678,-0.6701 -6.5678,-1.1276 0,-2.0563 3.24243,-2.7914 13.25,-3.004 13.13872,-0.2792 13.51105,0.4348 4,7.6701 -3.7125,2.8242 -7.74368,6.0624 -8.95819,7.196 -1.47558,1.3773 -3.54912,2.0611 -6.25,2.0611 -2.22299,0 -4.04181,-0.1481 -4.04181,-0.3292 z"
         id="path2985"
         inkscape:connector-curvature="0" />
      <path
         sodipodi:nodetypes="sscccssssssssccssccsccscc"
         style="fill:#000000"
         d="m 259.0067,1639.5865 c -5.48955,-2.433 -9.95688,-8.7983 -9.96262,-14.1953 -0.005,-4.6686 2.91579,-9.9452 7.09787,-12.8229 2.85705,-1.966 4.33675,-2.2728 9.28917,-1.926 5.38914,0.3773 6.21943,0.7648 9.75,4.5497 3.49006,3.7416 3.85922,4.653 3.85922,9.5282 0,6.4695 -2.78198,11.3034 -8.01993,13.935 -3.49767,1.7573 -9.15967,2.1962 -12.01371,0.9313 z m 13.28364,-7.1338 c 4.14577,-4.6395 3.85649,-10.1394 -0.77701,-14.7729 -3.23472,-3.2348 -3.90106,-3.4849 -8.04058,-3.0183 -5.26159,0.5931 -7.919,2.6596 -9.47232,7.3662 -3.67488,11.135 10.45749,19.1903 18.28991,10.425 z m -13.90267,-2.5832 c -0.32444,-0.8455 0.15104,-2.3559 1.05662,-3.3566 1.47101,-1.6254 1.48393,-1.9543 0.12128,-3.0852 -0.83888,-0.6962 -1.52523,-1.8857 -1.52523,-2.6434 0,-1.6363 3.14287,-1.8347 4.6821,-0.2954 0.77614,0.7761 1.67389,0.7125 3.17504,-0.225 1.65814,-1.0355 2.34891,-1.0511 3.32504,-0.075 0.97614,0.9761 0.89218,1.572 -0.40414,2.8684 -1.49543,1.4954 -1.50046,1.8434 -0.0585,4.0442 2.20794,3.3697 0.21414,5.4602 -2.69592,2.8266 -1.88674,-1.7075 -2.14734,-1.7194 -3.85237,-0.1764 -2.27033,2.0547 -3.07121,2.0793 -3.82392,0.1178 z"
         id="path2985-9"
         inkscape:connector-curvature="0" />
    </g>
    <g
       id="g3803"
       transform="translate(-12.121831,64.649762)">
      <path
         inkscape:connector-curvature="0"
         id="path3801"
         d="m 203.54574,1328.6389 -2.90419,1.1364 -1.38896,2.2729 1.76777,2.1465 8.20749,0.6314 12.50063,-1.389 23.99113,-2.9042 16.92005,-1.6415 60.10408,-7.3236 8.71256,-0.505 -1.26269,-3.283 -1.01015,-7.8287 0.37881,-3.283 -61.11423,10.354 z"
         style="fill:#ff0000;stroke:#000000;stroke-width:1px;stroke-linecap:butt;stroke-linejoin:miter;stroke-opacity:1" />
      <path
         sodipodi:nodetypes="cscccssscsccccssscscscscscccssssscsssssscssssssscccsccscscscscscscccc"
         style="fill:#000000"
         d="m 355.50001,1346.5514 c -9.43992,-3.0966 -20.79632,-12.4761 -24.0553,-19.8678 -0.92992,-2.1091 -2.13706,-3.2504 -3.43881,-3.2513 -2.18973,0 -62.09115,6.7215 -67.08087,7.5288 -16.15081,1.7573 -0.80088,0.022 -17.42502,1.848 l -16.70856,1.9425 c -15.1919,1.7663 -7.09736,0.817 -20.46661,1.4081 -13.59529,0.6011 -10.14925,-7.8505 -4.31975,-9.0182 l 10.91071,-2.1856 c 11.89923,-1.8324 16.10528,-2.7588 33.58421,-5.9065 14.025,-2.5257 25.8375,-4.5975 26.25,-4.604 36.89087,-6.2015 20.66738,-3.4871 30.87253,-5.3627 9.98026,-1.5832 2.82299,-0.1417 14.6738,-2.396 l 8.88595,-1.6901 1.38075,-5.3954 c 7.23846,-28.2848 41.99477,-39.8218 63.77318,-19.6589 3.17188,2.9366 6.59293,6.8729 7.60233,8.7472 l 1.83528,3.4079 7.39926,-1.2867 c 5.95998,-1.0364 10.31849,-1.045 10.32829,-0.02 7.5e-4,0.079 0.67513,3.968 1.49863,8.643 0.8235,4.675 1.49788,9.2972 1.49863,10.2715 0.002,2.3318 -3.02647,3.4763 -11.24863,4.2514 -6.06419,0.5717 -6.75008,0.8568 -6.75079,2.8067 -10e-4,3.9765 -5.86289,14.6293 -10.72414,19.4906 -2.64033,2.6403 -7.47985,6.1114 -10.7545,7.7136 -5.12537,2.5076 -7.28055,2.9471 -15.48724,3.1585 -5.24333,0.135 -10.65833,-0.1236 -12.03333,-0.5746 z m 26,-6.5575 c 7.30797,-3.6954 14.34268,-11.2458 17.11712,-18.372 7.67456,-19.7121 -3.64186,-41.5212 -24.28945,-46.8109 -15.40987,-3.9478 -32.45292,4.0147 -39.5572,18.4811 -2.43698,4.9625 -3.93118,10.5351 -3.8419,14.6951 0.17479,8.1436 1.44134,10.7307 3.66576,15.4464 2.78853,5.9118 9.39301,13.1583 14.34613,15.7409 9.93919,5.1824 23.26802,5.5178 32.55954,0.8194 z m -24,-0.4466 c -13.51848,-4.3907 -21.96109,-15.1885 -22.76353,-29.1137 -0.7921,-13.7458 5.2451,-24.1579 17.50775,-30.1948 13.16163,-6.4794 27.81855,-3.6465 37.63766,7.2747 14.15212,15.7406 9.08247,40.6647 -10.18907,50.093 -5.0133,2.4526 -17.30675,3.5277 -22.19281,1.9408 z m 21.24244,-3.989 c 10.30499,-4.9885 16.73121,-15.0403 16.74779,-26.1965 0.014,-9.4002 -2.34844,-15.4168 -8.44853,-21.5169 -9.24343,-9.2434 -22.18777,-11.3215 -34.07344,-5.4702 -24.39521,12.0097 -20.94105,46.4678 5.53174,55.1837 4.3331,1.4266 15.42846,0.3303 20.24244,-2.0001 z m -178.01596,0.8355 c -1.2e-4,0 1.2e-4,5e-4 0,4e-4 z m 61.99324,-9.9984 c 29.30416,-3.3211 56.04187,-6.3064 59.41714,-6.6341 l 6.13687,-0.5957 -0.51321,-4.116 c -0.28226,-2.2638 -0.3411,-4.1568 -0.5251,-4.8961 -0.80069,-0.2676 -14.71331,1.5941 -96.73542,15.8765 -14.575,2.538 -27.175,5.0033 -28,5.4786 -3.03878,1.7508 7.69724,0.8392 60.21972,-5.1132 z m 154.37936,-17.4569 c 0.79582,-0.2362 0.78335,-2.2134 -0.0452,-7.1656 l -1.14431,-6.8393 -5.38911,0.2344 c -2.964,0.1289 -5.6925,0.5789 -6.06333,1 -0.37082,0.4211 -0.2001,3.7715 0.37939,7.4454 l 1.0536,6.6798 5.05495,-0.5142 c 2.78022,-0.2829 5.54954,-0.6611 6.15403,-0.8405 z"
         id="path3170"
         inkscape:connector-curvature="0" />
    </g>
  </g>
</svg>
